<svg xmlns="http://www.w3.org/2000/svg" xmlns:xlink="http://www.w3.org/1999/xlink" viewBox="900 -480 1920 1080"><path fill="#0F0F0F" d="M900-480h1920V600H900z"/><defs><path id="a" d="M900-480h1920V600H900z"/></defs><clipPath id="b"><use xlink:href="#a" overflow="visible"/></clipPath><path clip-path="url(#b)" fill="#070707" d="M2942 388l-172 246 309-24-137-222z"/><defs><path id="c" d="M900-480h1920V600H900z"/></defs><clipPath id="d"><use xlink:href="#c" overflow="visible"/></clipPath><path clip-path="url(#d)" fill="#0F0F0F" d="M2719 496l51 138 172-246-223 108z"/><defs><path id="e" d="M900-480h1920V600H900z"/></defs><clipPath id="f"><use xlink:href="#e" overflow="visible"/></clipPath><path clip-path="url(#f)" fill="#111" d="M2855 244l-128 23 215 121-87-144z"/><defs><path id="g" d="M900-480h1920V600H900z"/></defs><clipPath id="h"><use xlink:href="#g" overflow="visible"/></clipPath><path clip-path="url(#h)" fill="#111" d="M2727 267l-8 229 223-108-215-121z"/><defs><path id="i" d="M900-480h1920V600H900z"/></defs><clipPath id="j"><use xlink:href="#i" overflow="visible"/></clipPath><path clip-path="url(#j)" fill="#111" d="M2647-400l186 298 109-325-295 27z"/><defs><path id="k" d="M900-480h1920V600H900z"/></defs><clipPath id="l"><use xlink:href="#k" overflow="visible"/></clipPath><path clip-path="url(#l)" fill="#111" d="M2759-504l-112 104 295-27-183-77z"/><defs><path id="m" d="M900-480h1920V600H900z"/></defs><clipPath id="n"><use xlink:href="#m" overflow="visible"/></clipPath><path clip-path="url(#n)" d="M2829-554l-70 50 183 77-113-127z"/><defs><path id="o" d="M900-480h1920V600H900z"/></defs><clipPath id="p"><use xlink:href="#o" overflow="visible"/></clipPath><path clip-path="url(#p)" fill="#161616" d="M2647-400l-118 83 304 215-186-298z"/><defs><path id="q" d="M900-480h1920V600H900z"/></defs><clipPath id="r"><use xlink:href="#q" overflow="visible"/></clipPath><path clip-path="url(#r)" fill="#111" d="M2833-102L2639 18l231 45-37-165z"/><defs><path id="s" d="M900-480h1920V600H900z"/></defs><clipPath id="t"><use xlink:href="#s" overflow="visible"/></clipPath><path clip-path="url(#t)" fill="#111" d="M2727 267l128-23 15-181-143 204z"/><defs><path id="u" d="M900-480h1920V600H900z"/></defs><clipPath id="v"><use xlink:href="#u" overflow="visible"/></clipPath><path clip-path="url(#v)" fill="#111" d="M2639 18l88 249 143-204-231-45z"/><defs><path id="w" d="M900-480h1920V600H900z"/></defs><clipPath id="x"><use xlink:href="#w" overflow="visible"/></clipPath><path clip-path="url(#x)" fill="#191919" d="M2529-317l65 271 239-56-304-215z"/><defs><path id="y" d="M900-480h1920V600H900z"/></defs><clipPath id="z"><use xlink:href="#y" overflow="visible"/></clipPath><path clip-path="url(#z)" fill="#141414" d="M2594-46l45 64 194-120-239 56z"/><defs><path id="A" d="M900-480h1920V600H900z"/></defs><clipPath id="B"><use xlink:href="#A" overflow="visible"/></clipPath><path clip-path="url(#B)" fill="#111" d="M2479 401l240 95 8-229-248 134z"/><defs><path id="C" d="M900-480h1920V600H900z"/></defs><clipPath id="D"><use xlink:href="#C" overflow="visible"/></clipPath><path clip-path="url(#D)" fill="#131313" d="M2559 243l-80 158 248-134-168-24z"/><defs><path id="E" d="M900-480h1920V600H900z"/></defs><clipPath id="F"><use xlink:href="#E" overflow="visible"/></clipPath><path clip-path="url(#F)" fill="#181819" d="M2639 18l-80 225 168 24-88-249z"/><defs><path id="G" d="M900-480h1920V600H900z"/></defs><clipPath id="H"><use xlink:href="#G" overflow="visible"/></clipPath><path clip-path="url(#H)" fill="#111" d="M2719 496l-106 147 157-9-51-138z"/><defs><path id="I" d="M900-480h1920V600H900z"/></defs><clipPath id="J"><use xlink:href="#I" overflow="visible"/></clipPath><path clip-path="url(#J)" fill="#191919" d="M2619-691l28 291 112-104-140-187z"/><defs><path id="K" d="M900-480h1920V600H900z"/></defs><clipPath id="L"><use xlink:href="#K" overflow="visible"/></clipPath><path clip-path="url(#L)" fill="#161616" d="M2619-691l-200 115 228 176-28-291z"/><defs><path id="M" d="M900-480h1920V600H900z"/></defs><clipPath id="N"><use xlink:href="#M" overflow="visible"/></clipPath><path clip-path="url(#N)" fill="#111" d="M2479 401l134 242 106-147-240-95z"/><defs><path id="O" d="M900-480h1920V600H900z"/></defs><clipPath id="P"><use xlink:href="#O" overflow="visible"/></clipPath><path clip-path="url(#P)" fill="#141414" d="M2479 401l32 235 102 7-134-242z"/><defs><path id="Q" d="M900-480h1920V600H900z"/></defs><clipPath id="R"><use xlink:href="#Q" overflow="visible"/></clipPath><path clip-path="url(#R)" fill="#161616" d="M2529-317l-137 94 202 177-65-271z"/><defs><path id="S" d="M900-480h1920V600H900z"/></defs><clipPath id="T"><use xlink:href="#S" overflow="visible"/></clipPath><path clip-path="url(#T)" fill="#141414" d="M2450 100l109 143 80-225-189 82z"/><defs><path id="U" d="M900-480h1920V600H900z"/></defs><clipPath id="V"><use xlink:href="#U" overflow="visible"/></clipPath><path clip-path="url(#V)" fill="#111" d="M2419-576l110 259 118-83-228-176z"/><defs><path id="W" d="M900-480h1920V600H900z"/></defs><clipPath id="X"><use xlink:href="#W" overflow="visible"/></clipPath><path clip-path="url(#X)" fill="#141414" d="M2594-46l-144 146 189-82-45-64z"/><defs><path id="Y" d="M900-480h1920V600H900z"/></defs><clipPath id="Z"><use xlink:href="#Y" overflow="visible"/></clipPath><path clip-path="url(#Z)" fill="#191919" d="M2392-223l58 323 144-146-202-177z"/><defs><path id="aa" d="M900-480h1920V600H900z"/></defs><clipPath id="ab"><use xlink:href="#aa" overflow="visible"/></clipPath><path clip-path="url(#ab)" fill="#161616" d="M2331 148l148 253 80-158-228-95z"/><defs><path id="ac" d="M900-480h1920V600H900z"/></defs><clipPath id="ad"><use xlink:href="#ac" overflow="visible"/></clipPath><path clip-path="url(#ad)" fill="#161616" d="M2450 100l-119 48 228 95-109-143z"/><defs><path id="ae" d="M900-480h1920V600H900z"/></defs><clipPath id="af"><use xlink:href="#ae" overflow="visible"/></clipPath><path clip-path="url(#af)" fill="#161616" d="M2392-223L2200-78l250 178-58-323z"/><defs><path id="ag" d="M900-480h1920V600H900z"/></defs><clipPath id="ah"><use xlink:href="#ag" overflow="visible"/></clipPath><path clip-path="url(#ah)" fill="#141414" d="M2479 401l-178 35 210 200-32-235z"/><defs><path id="ai" d="M900-480h1920V600H900z"/></defs><clipPath id="aj"><use xlink:href="#ai" overflow="visible"/></clipPath><path clip-path="url(#aj)" fill="#141414" d="M2419-576l-204 223 314 36-110-259z"/><defs><path id="ak" d="M900-480h1920V600H900z"/></defs><clipPath id="al"><use xlink:href="#ak" overflow="visible"/></clipPath><path clip-path="url(#al)" fill="#1C1C1C" d="M2215-353l177 130 137-94-314-36z"/><defs><path id="am" d="M900-480h1920V600H900z"/></defs><clipPath id="an"><use xlink:href="#am" overflow="visible"/></clipPath><path clip-path="url(#an)" fill="#161616" d="M2331 148l-111 114 259 139-148-253z"/><defs><path id="ao" d="M900-480h1920V600H900z"/></defs><clipPath id="ap"><use xlink:href="#ao" overflow="visible"/></clipPath><path clip-path="url(#ap)" fill="#191919" d="M2220 262l81 174 178-35-259-139z"/><defs><path id="aq" d="M900-480h1920V600H900z"/></defs><clipPath id="ar"><use xlink:href="#aq" overflow="visible"/></clipPath><path clip-path="url(#ar)" fill="#141414" d="M2301 436l46 303 164-103-210-200z"/><defs><path id="as" d="M900-480h1920V600H900z"/></defs><clipPath id="at"><use xlink:href="#as" overflow="visible"/></clipPath><path clip-path="url(#at)" fill="#161616" d="M2200-78l131 226 119-48-250-178z"/><defs><path id="au" d="M900-480h1920V600H900z"/></defs><clipPath id="av"><use xlink:href="#au" overflow="visible"/></clipPath><path clip-path="url(#av)" fill="#111" d="M2350-626l-135 273 204-223-69-50z"/><defs><path id="aw" d="M900-480h1920V600H900z"/></defs><clipPath id="ax"><use xlink:href="#aw" overflow="visible"/></clipPath><path clip-path="url(#ax)" fill="#191919" d="M2301 436l-176-5 222 308-46-303z"/><defs><path id="ay" d="M900-480h1920V600H900z"/></defs><clipPath id="az"><use xlink:href="#ay" overflow="visible"/></clipPath><path clip-path="url(#az)" fill="#0A0A0A" d="M2125 431l155 356 67-48-222-308z"/><defs><path id="aA" d="M900-480h1920V600H900z"/></defs><clipPath id="aB"><use xlink:href="#aA" overflow="visible"/></clipPath><path clip-path="url(#aB)" fill="#161616" d="M2109-594l106 241 135-273-241 32z"/><defs><path id="aC" d="M900-480h1920V600H900z"/></defs><clipPath id="aD"><use xlink:href="#aC" overflow="visible"/></clipPath><path clip-path="url(#aD)" fill="#141414" d="M2215-353l-15 275 192-145-177-130z"/><defs><path id="aE" d="M900-480h1920V600H900z"/></defs><clipPath id="aF"><use xlink:href="#aE" overflow="visible"/></clipPath><path clip-path="url(#aF)" fill="#191919" d="M2109-594l16 195 90 46-106-241z"/><defs><path id="aG" d="M900-480h1920V600H900z"/></defs><clipPath id="aH"><use xlink:href="#aG" overflow="visible"/></clipPath><path clip-path="url(#aH)" fill="#0F0F0F" d="M2125 431l-159 238 314 118-155-356z"/><defs><path id="aI" d="M900-480h1920V600H900z"/></defs><clipPath id="aJ"><use xlink:href="#aI" overflow="visible"/></clipPath><path clip-path="url(#aJ)" fill="#191919" d="M2200-78l-118 213 249 13-131-226z"/><defs><path id="aK" d="M900-480h1920V600H900z"/></defs><clipPath id="aL"><use xlink:href="#aK" overflow="visible"/></clipPath><path clip-path="url(#aL)" fill="#191919" d="M2082 135l138 127 111-114-249-13z"/><defs><path id="aM" d="M900-480h1920V600H900z"/></defs><clipPath id="aN"><use xlink:href="#aM" overflow="visible"/></clipPath><path clip-path="url(#aN)" fill="#151616" d="M2024-203l176 125 15-275-191 150z"/><defs><path id="aO" d="M900-480h1920V600H900z"/></defs><clipPath id="aP"><use xlink:href="#aO" overflow="visible"/></clipPath><path clip-path="url(#aP)" fill="#1C1C1C" d="M2220 262l-95 169 176 5-81-174z"/><defs><path id="aQ" d="M900-480h1920V600H900z"/></defs><clipPath id="aR"><use xlink:href="#aQ" overflow="visible"/></clipPath><path clip-path="url(#aR)" fill="#161616" d="M2104 317l21 114 95-169-116 55z"/><defs><path id="aS" d="M900-480h1920V600H900z"/></defs><clipPath id="aT"><use xlink:href="#aS" overflow="visible"/></clipPath><path clip-path="url(#aT)" fill="#191919" d="M2125-399l-101 196 191-150-90-46z"/><defs><path id="aU" d="M900-480h1920V600H900z"/></defs><clipPath id="aV"><use xlink:href="#aU" overflow="visible"/></clipPath><path clip-path="url(#aV)" fill="#191A19" d="M2082 135l22 182 116-55-138-127z"/><defs><path id="aW" d="M900-480h1920V600H900z"/></defs><clipPath id="aX"><use xlink:href="#aW" overflow="visible"/></clipPath><path clip-path="url(#aX)" fill="#171718" d="M1928-59l154 194 118-213-272 19z"/><defs><path id="aY" d="M900-480h1920V600H900z"/></defs><clipPath id="aZ"><use xlink:href="#aY" overflow="visible"/></clipPath><path clip-path="url(#aZ)" fill="#141414" d="M2024-203l-96 144 272-19-176-125z"/><defs><path id="ba" d="M900-480h1920V600H900z"/></defs><clipPath id="bb"><use xlink:href="#ba" overflow="visible"/></clipPath><path clip-path="url(#bb)" fill="#151515" d="M1928-59l-31 103 185 91-154-194z"/><defs><path id="bc" d="M900-480h1920V600H900z"/></defs><clipPath id="bd"><use xlink:href="#bc" overflow="visible"/></clipPath><path clip-path="url(#bd)" fill="#161616" d="M1863-592l18 224 228-226-246 2z"/><defs><path id="be" d="M900-480h1920V600H900z"/></defs><clipPath id="bf"><use xlink:href="#be" overflow="visible"/></clipPath><path clip-path="url(#bf)" fill="#191919" d="M2104 317l-190 117 211-3-21-114z"/><defs><path id="bg" d="M900-480h1920V600H900z"/></defs><clipPath id="bh"><use xlink:href="#bg" overflow="visible"/></clipPath><path clip-path="url(#bh)" fill="#161616" d="M1914 434l52 235 159-238-211 3z"/><defs><path id="bi" d="M900-480h1920V600H900z"/></defs><clipPath id="bj"><use xlink:href="#bi" overflow="visible"/></clipPath><path clip-path="url(#bj)" fill="#141414" d="M2109-594l-228 226 244-31-16-195z"/><defs><path id="bk" d="M900-480h1920V600H900z"/></defs><clipPath id="bl"><use xlink:href="#bk" overflow="visible"/></clipPath><path clip-path="url(#bl)" fill="#141414" d="M1881-368l143 165 101-196-244 31z"/><defs><path id="bm" d="M900-480h1920V600H900z"/></defs><clipPath id="bn"><use xlink:href="#bm" overflow="visible"/></clipPath><path clip-path="url(#bn)" fill="#1E1E1E" d="M2082 135l-304 100 326 82-22-182z"/><defs><path id="bo" d="M900-480h1920V600H900z"/></defs><clipPath id="bp"><use xlink:href="#bo" overflow="visible"/></clipPath><path clip-path="url(#bp)" fill="#161616" d="M1778 235l136 199 190-117-326-82z"/><defs><path id="bq" d="M900-480h1920V600H900z"/></defs><clipPath id="br"><use xlink:href="#bq" overflow="visible"/></clipPath><path clip-path="url(#br)" fill="#191919" d="M1897 44l-119 191 304-100-185-91z"/><defs><path id="bs" d="M900-480h1920V600H900z"/></defs><clipPath id="bt"><use xlink:href="#bs" overflow="visible"/></clipPath><path clip-path="url(#bt)" fill="#1C1C1C" d="M1914 434l-60 228 112 7-52-235z"/><defs><path id="bu" d="M900-480h1920V600H900z"/></defs><clipPath id="bv"><use xlink:href="#bu" overflow="visible"/></clipPath><path clip-path="url(#bv)" fill="#191919" d="M1881-368l47 309 96-144-143-165z"/><defs><path id="bw" d="M900-480h1920V600H900z"/></defs><clipPath id="bx"><use xlink:href="#bw" overflow="visible"/></clipPath><path clip-path="url(#bx)" fill="#1C1C1C" d="M1881-368l-133 27 180 282-47-309z"/><defs><path id="by" d="M900-480h1920V600H900z"/></defs><clipPath id="bz"><use xlink:href="#by" overflow="visible"/></clipPath><path clip-path="url(#bz)" fill="#191919" d="M1748-341l-76 194 256 88-180-282z"/><defs><path id="bA" d="M900-480h1920V600H900z"/></defs><clipPath id="bB"><use xlink:href="#bA" overflow="visible"/></clipPath><path clip-path="url(#bB)" fill="#141414" d="M1863-592l-115 251 133-27-18-224z"/><defs><path id="bC" d="M900-480h1920V600H900z"/></defs><clipPath id="bD"><use xlink:href="#bC" overflow="visible"/></clipPath><path clip-path="url(#bD)" fill="#191819" d="M1648 485l206 177 60-228-266 51z"/><defs><path id="bE" d="M900-480h1920V600H900z"/></defs><clipPath id="bF"><use xlink:href="#bE" overflow="visible"/></clipPath><path clip-path="url(#bF)" fill="#1C1C1C" d="M1672-147l225 191 31-103-256-88z"/><defs><path id="bG" d="M900-480h1920V600H900z"/></defs><clipPath id="bH"><use xlink:href="#bG" overflow="visible"/></clipPath><path clip-path="url(#bH)" fill="#191919" d="M1633-512l115 171 115-251-230 80z"/><defs><path id="bI" d="M900-480h1920V600H900z"/></defs><clipPath id="bJ"><use xlink:href="#bI" overflow="visible"/></clipPath><path clip-path="url(#bJ)" fill="#191919" d="M1778 235l-130 250 266-51-136-199z"/><defs><path id="bK" d="M900-480h1920V600H900z"/></defs><clipPath id="bL"><use xlink:href="#bK" overflow="visible"/></clipPath><path clip-path="url(#bL)" fill="#1E1E1E" d="M1625 90l153 145 119-191-272 46z"/><defs><path id="bM" d="M900-480h1920V600H900z"/></defs><clipPath id="bN"><use xlink:href="#bM" overflow="visible"/></clipPath><path clip-path="url(#bN)" fill="#212121" d="M1672-147l-47 237 272-46-225-191z"/><defs><path id="bO" d="M900-480h1920V600H900z"/></defs><clipPath id="bP"><use xlink:href="#bO" overflow="visible"/></clipPath><path clip-path="url(#bP)" fill="#1E1E1E" d="M1648 485l18 258 188-81-206-177z"/><defs><path id="bQ" d="M900-480h1920V600H900z"/></defs><clipPath id="bR"><use xlink:href="#bQ" overflow="visible"/></clipPath><path clip-path="url(#bR)" fill="#1E1E1E" d="M1672 228l-24 257 130-250-106-7z"/><defs><path id="bS" d="M900-480h1920V600H900z"/></defs><clipPath id="bT"><use xlink:href="#bS" overflow="visible"/></clipPath><path clip-path="url(#bT)" fill="#1C1C1C" d="M1625 90l47 138 106 7-153-145z"/><defs><path id="bU" d="M900-480h1920V600H900z"/></defs><clipPath id="bV"><use xlink:href="#bU" overflow="visible"/></clipPath><path clip-path="url(#bV)" fill="#232323" d="M1548-19l77 109 47-237-124 128z"/><defs><path id="bW" d="M900-480h1920V600H900z"/></defs><clipPath id="bX"><use xlink:href="#bW" overflow="visible"/></clipPath><path clip-path="url(#bX)" fill="#1E1E1E" d="M1557-370l115 223 76-194-191-29z"/><defs><path id="bY" d="M900-480h1920V600H900z"/></defs><clipPath id="bZ"><use xlink:href="#bY" overflow="visible"/></clipPath><path clip-path="url(#bZ)" fill="#212121" d="M1633-512l-76 142 191 29-115-171z"/><defs><path id="ca" d="M900-480h1920V600H900z"/></defs><clipPath id="cb"><use xlink:href="#ca" overflow="visible"/></clipPath><path clip-path="url(#cb)" fill="#232323" d="M1648 485l-174 32 192 226-18-258z"/><defs><path id="cc" d="M900-480h1920V600H900z"/></defs><clipPath id="cd"><use xlink:href="#cc" overflow="visible"/></clipPath><path clip-path="url(#cd)" fill="#2B2B2B" d="M1457 267l191 218 24-257-215 39z"/><defs><path id="ce" d="M900-480h1920V600H900z"/></defs><clipPath id="cf"><use xlink:href="#ce" overflow="visible"/></clipPath><path clip-path="url(#cf)" fill="#262626" d="M1457 267l17 250 174-32-191-218z"/><defs><path id="cg" d="M900-480h1920V600H900z"/></defs><clipPath id="ch"><use xlink:href="#cg" overflow="visible"/></clipPath><path clip-path="url(#ch)" fill="#1E1E1E" d="M1474 517l-111 122 303 104-192-226z"/><defs><path id="ci" d="M900-480h1920V600H900z"/></defs><clipPath id="cj"><use xlink:href="#ci" overflow="visible"/></clipPath><path clip-path="url(#cj)" fill="#282828" d="M1625 90l-168 177 215-39-47-138z"/><defs><path id="ck" d="M900-480h1920V600H900z"/></defs><clipPath id="cl"><use xlink:href="#ck" overflow="visible"/></clipPath><path clip-path="url(#cl)" fill="#212121" d="M1557-370L1432-73l240-74-115-223z"/><defs><path id="cm" d="M900-480h1920V600H900z"/></defs><clipPath id="cn"><use xlink:href="#cm" overflow="visible"/></clipPath><path clip-path="url(#cn)" fill="#232323" d="M1432-73l116 54 124-128-240 74z"/><defs><path id="co" d="M900-480h1920V600H900z"/></defs><clipPath id="cp"><use xlink:href="#co" overflow="visible"/></clipPath><path clip-path="url(#cp)" fill="#282828" d="M1403-582l154 212 76-142-230-70z"/><defs><path id="cq" d="M900-480h1920V600H900z"/></defs><clipPath id="cr"><use xlink:href="#cq" overflow="visible"/></clipPath><path clip-path="url(#cr)" fill="#262626" d="M1548-19l-91 286 168-177-77-109z"/><defs><path id="cs" d="M900-480h1920V600H900z"/></defs><clipPath id="ct"><use xlink:href="#cs" overflow="visible"/></clipPath><path clip-path="url(#ct)" fill="#232323" d="M1329-29l128 296 91-286-219-10z"/><defs><path id="cu" d="M900-480h1920V600H900z"/></defs><clipPath id="cv"><use xlink:href="#cu" overflow="visible"/></clipPath><path clip-path="url(#cv)" fill="#1E1E1E" d="M1432-73l-103 44 219 10-116-54z"/><defs><path id="cw" d="M900-480h1920V600H900z"/></defs><clipPath id="cx"><use xlink:href="#cw" overflow="visible"/></clipPath><path clip-path="url(#cx)" fill="#1C1C1C" d="M1301-154l131 81 125-297-256 216z"/><defs><path id="cy" d="M900-480h1920V600H900z"/></defs><clipPath id="cz"><use xlink:href="#cy" overflow="visible"/></clipPath><path clip-path="url(#cz)" fill="#1E1E1E" d="M1279-295l22 141 256-216-278 75z"/><defs><path id="cA" d="M900-480h1920V600H900z"/></defs><clipPath id="cB"><use xlink:href="#cA" overflow="visible"/></clipPath><path clip-path="url(#cB)" fill="#232323" d="M1403-582l-124 287 278-75-154-212z"/><defs><path id="cC" d="M900-480h1920V600H900z"/></defs><clipPath id="cD"><use xlink:href="#cC" overflow="visible"/></clipPath><path clip-path="url(#cD)" fill="#212121" d="M1329-29l-65 385 193-89-128-296z"/><defs><path id="cE" d="M900-480h1920V600H900z"/></defs><clipPath id="cF"><use xlink:href="#cE" overflow="visible"/></clipPath><path clip-path="url(#cF)" fill="#1E1E1E" d="M1457 267l-193 89 210 161-17-250z"/><defs><path id="cG" d="M900-480h1920V600H900z"/></defs><clipPath id="cH"><use xlink:href="#cG" overflow="visible"/></clipPath><path clip-path="url(#cH)" fill="#1C1C1C" d="M1264 356l99 283 111-122-210-161z"/><defs><path id="cI" d="M900-480h1920V600H900z"/></defs><clipPath id="cJ"><use xlink:href="#cI" overflow="visible"/></clipPath><path clip-path="url(#cJ)" fill="#20201F" d="M1143-5l121 361 65-385-186 24z"/><defs><path id="cK" d="M900-480h1920V600H900z"/></defs><clipPath id="cL"><use xlink:href="#cK" overflow="visible"/></clipPath><path clip-path="url(#cL)" fill="#1E1E1E" d="M1264 356l-75 62 174 221-99-283z"/><defs><path id="cM" d="M900-480h1920V600H900z"/></defs><clipPath id="cN"><use xlink:href="#cM" overflow="visible"/></clipPath><path clip-path="url(#cN)" fill="#262626" d="M1137-404l142 109 124-287-266 178z"/><defs><path id="cO" d="M900-480h1920V600H900z"/></defs><clipPath id="cP"><use xlink:href="#cO" overflow="visible"/></clipPath><path clip-path="url(#cP)" fill="#1E1E1E" d="M1301-154l28 125 103-44-131-81z"/><defs><path id="cQ" d="M900-480h1920V600H900z"/></defs><clipPath id="cR"><use xlink:href="#cQ" overflow="visible"/></clipPath><path clip-path="url(#cR)" fill="#282828" d="M1215-640l-78 236 266-178-188-58z"/><defs><path id="cS" d="M900-480h1920V600H900z"/></defs><clipPath id="cT"><use xlink:href="#cS" overflow="visible"/></clipPath><path clip-path="url(#cT)" fill="#191919" d="M1143-5L987 221l277 135L1143-5z"/><defs><path id="cU" d="M900-480h1920V600H900z"/></defs><clipPath id="cV"><use xlink:href="#cU" overflow="visible"/></clipPath><path clip-path="url(#cV)" fill="#191919" d="M1189 418l-43 267 217-46-174-221z"/><defs><path id="cW" d="M900-480h1920V600H900z"/></defs><clipPath id="cX"><use xlink:href="#cW" overflow="visible"/></clipPath><path clip-path="url(#cX)" fill="#1C1C1C" d="M1301-154L1143-5l186-24-28-125z"/><defs><path id="cY" d="M900-480h1920V600H900z"/></defs><clipPath id="cZ"><use xlink:href="#cY" overflow="visible"/></clipPath><path clip-path="url(#cZ)" fill="#191919" d="M1279-295L1043-76l258-78-22-141z"/><defs><path id="da" d="M900-480h1920V600H900z"/></defs><clipPath id="db"><use xlink:href="#da" overflow="visible"/></clipPath><path clip-path="url(#db)" fill="#1C1C1C" d="M1043-76l100 71 158-149-258 78z"/><defs><path id="dc" d="M900-480h1920V600H900z"/></defs><clipPath id="dd"><use xlink:href="#dc" overflow="visible"/></clipPath><path clip-path="url(#dd)" fill="#1B1B1B" d="M987 221l202 197 75-62-277-135z"/><defs><path id="de" d="M900-480h1920V600H900z"/></defs><clipPath id="df"><use xlink:href="#de" overflow="visible"/></clipPath><path clip-path="url(#df)" fill="#1E1E1E" d="M1137-404l-94 328 236-219-142-109z"/><defs><path id="dg" d="M900-480h1920V600H900z"/></defs><clipPath id="dh"><use xlink:href="#dg" overflow="visible"/></clipPath><path clip-path="url(#dh)" fill="#161616" d="M992 533l154 152 43-267-197 115z"/><defs><path id="di" d="M900-480h1920V600H900z"/></defs><clipPath id="dj"><use xlink:href="#di" overflow="visible"/></clipPath><path clip-path="url(#dj)" fill="#1E1E1E" d="M1108-686L965-539l172 135-29-282z"/><defs><path id="dk" d="M900-480h1920V600H900z"/></defs><clipPath id="dl"><use xlink:href="#dk" overflow="visible"/></clipPath><path clip-path="url(#dl)" fill="#1C1C1C" d="M1108-686l29 282 78-236-107-46z"/><defs><path id="dm" d="M900-480h1920V600H900z"/></defs><clipPath id="dn"><use xlink:href="#dm" overflow="visible"/></clipPath><path clip-path="url(#dn)" fill="#232323" d="M875-173l168 97 94-328-262 231z"/><defs><path id="do" d="M900-480h1920V600H900z"/></defs><clipPath id="dp"><use xlink:href="#do" overflow="visible"/></clipPath><path clip-path="url(#dp)" fill="#161616" d="M987 221l5 312 197-115-202-197z"/><defs><path id="dq" d="M900-480h1920V600H900z"/></defs><clipPath id="dr"><use xlink:href="#dq" overflow="visible"/></clipPath><path clip-path="url(#dr)" fill="#161616" d="M987 221l-138 94 143 218-5-312z"/><defs><path id="ds" d="M900-480h1920V600H900z"/></defs><clipPath id="dt"><use xlink:href="#ds" overflow="visible"/></clipPath><path clip-path="url(#dt)" fill="#1C1C1C" d="M854 43l133 178 56-297L854 43z"/><defs><path id="du" d="M900-480h1920V600H900z"/></defs><clipPath id="dv"><use xlink:href="#du" overflow="visible"/></clipPath><path clip-path="url(#dv)" fill="#1E1E1E" d="M778-353l97 180 262-231-359 51z"/><defs><path id="dw" d="M900-480h1920V600H900z"/></defs><clipPath id="dx"><use xlink:href="#dw" overflow="visible"/></clipPath><path clip-path="url(#dx)" fill="#212121" d="M1043-76l-56 297L1143-5l-100-71z"/><defs><path id="dy" d="M900-480h1920V600H900z"/></defs><clipPath id="dz"><use xlink:href="#dy" overflow="visible"/></clipPath><path clip-path="url(#dz)" fill="#161616" d="M992 533l46 291 108-139-154-152z"/><defs><path id="dA" d="M900-480h1920V600H900z"/></defs><clipPath id="dB"><use xlink:href="#dA" overflow="visible"/></clipPath><path clip-path="url(#dB)" fill="#1C1C1C" d="M965-539l-72.5 59L778-353l359-51-172-135z"/><defs><path id="dC" d="M900-480h1920V600H900z"/></defs><clipPath id="dD"><use xlink:href="#dC" overflow="visible"/></clipPath><path clip-path="url(#dD)" fill="#171718" d="M992 533L792 667l246 157-46-291z"/><defs><path id="dE" d="M900-480h1920V600H900z"/></defs><clipPath id="dF"><use xlink:href="#dE" overflow="visible"/></clipPath><path clip-path="url(#dF)" fill="#141414" d="M849 315l-8 214 151 4-143-218z"/><defs><path id="dG" d="M900-480h1920V600H900z"/></defs><clipPath id="dH"><use xlink:href="#dG" overflow="visible"/></clipPath><path clip-path="url(#dH)" fill="#212121" d="M875-173L854 43l189-119-168-97z"/><defs><path id="dI" d="M900-480h1920V600H900z"/></defs><clipPath id="dJ"><use xlink:href="#dI" overflow="visible"/></clipPath><path clip-path="url(#dJ)" fill="#1F1F20" d="M841 529l-49 138 200-134-151-4z"/><g><defs><path id="dK" d="M900-480h1920V600H900z"/></defs><clipPath id="dL"><use xlink:href="#dK" overflow="visible"/></clipPath><path clip-path="url(#dL)" fill="#1E1E1E" d="M854 43l-5 272 138-94L854 43z"/></g></svg>