<svg id="Calque_1" xmlns="http://www.w3.org/2000/svg" viewBox="0 0 198 35"><style>.st0{fill:#1d1d1d}.st1{fill:#c61b10}.st2{fill:#c81b00}.st3{fill:#d41e15}.st4{fill:#d21f16}.st5{fill:#c81b13}.st6{fill:#c81b02}.st7{fill:#d52018}.st8{fill:#e8220f}.st9{fill:#f22f17}.st10{fill:#ef4d29}.st11{fill:#f05726}.st12{fill:#f06125}.st13{fill:#f05d26}.st14{fill:#f05828}.st15{fill:#f4351c}.st16{fill:#ef4e28}.st17{fill:#f02b17}.st18{fill:#ec4128}.st19{fill:#ec4228}.st20{fill:#e93b25}.st21{fill:#cf1d02}.st22{fill:#ed220f}.st23{fill:#f53c20}.st24{fill:#ed4626}.st25{fill:#de291c}.st26{fill:#e42109}.st27{fill:#ef2514}.st28{fill:#1d1d1d}</style><g id="gamekult"><path class="st0" d="M196.7 20.5c-.7.4-1.8.7-2.6.7-1.5 0-2.4-.7-2.4-2.6v-6.5h4.6V7h-4.6V2.8H186V7h-2.8v5.1h2.8v7.1c0 4.7 2.7 7.1 7.1 7.1 2 0 3.5-.6 4.9-1.3l-1.3-4.5zM109.3 26V15.2c0-1.6-1.3-3-3-3s-3 1.2-3 2.8v11h-5.5V15.2c0-1.6-1.3-3-3-3-1.6 0-2.9 1.2-3 2.8v11h-5.5V7h5.1v.5c1-.5 2.1-.8 3.4-.8 2.3 0 4.2.6 5.7 1.8 1.5-1.2 3.4-1.8 5.7-1.8 5.4 0 8.5 3.1 8.5 8.4V26h-5.4zm58.2-7.6c0 1.4-1.2 2.4-2.6 2.4-1.4 0-2.6-1.2-2.6-2.6V7h-5.4v11.3c0 5.1 3 8 8.1 8 1.3 0 2.5-.3 3.3-.9v.6h4.7V7h-5.4v11.4zM136.2.7V26h5.7v-3.3l2.7-3 5 6.3h7l-8.2-10.6 7.4-8.4h-6.6l-7.3 8V.7zM79.5 7v1.3c-1.5-.9-3.3-1.5-5.2-1.5-5.4 0-9.8 4.4-9.8 9.8s4.4 9.8 9.8 9.8c1.9 0 3.7-.6 5.2-1.5V26h4.8V7h-4.8zm-5.2 14.2c-2.5 0-4.6-2.1-4.6-4.6 0-2.5 2.1-4.6 4.6-4.6 2.5 0 4.6 2.1 4.6 4.6 0 2.5-2 4.6-4.6 4.6zM58 7v1c-1.4-.8-3-1.2-4.8-1.2-5.4 0-9.8 4.4-9.8 9.8s4.4 9.8 9.8 9.8c1.6 0 3.2-.4 4.5-1.1-.2 2.2-2.4 4-4.9 4-1.4 0-2.7-.8-3.5-1.4l-.2-.1-3.5 3.7.2.2c1.8 1.7 4.3 2.7 6.8 2.7 5.8 0 10.5-4.7 10.5-10.5V7H58zm-4.7 14.2c-2.5 0-4.6-2.1-4.6-4.6 0-2.5 2.1-4.6 4.6-4.6 2.5 0 4.6 2.1 4.6 4.6 0 2.5-2.1 4.6-4.6 4.6zm81.3-5.1c0 .8 0 1.4-.1 2.2h-12.7c.7 2.3 2.6 3.4 4.8 3.4 1.9 0 3.4-.6 5.2-1.5l2.1 3.7c-2.6 1.8-4.6 2.6-7.8 2.6-5.7 0-9.9-4.2-9.9-9.9 0-5.4 4.2-9.8 9.6-9.8 5.7-.1 8.8 3.8 8.8 9.3zm-12.8-1.6h7.5c0-2-1.5-3.2-3.7-3.2-1.8-.1-3.8 1.7-3.8 3.2zM181.5.7V26h-5.6V.7h5.6z" id="text"/><g id="logo"><path class="st1" d="M25.1 17.6l8 2.1-6.4 10.8z"/><path class="st2" d="M25.1 17.6l1.6 12.9 6.4-10.8z"/><path class="st3" d="M31.7 11.6l1.4 8.1-8-2.1z"/><path class="st4" d="M31.7 11.6l-6.6 6 8 2.1z"/><path class="st5" d="M20.7 25.8l6 4.7-5.9 3z"/><path class="st2" d="M20.7 25.8l.1 7.7 5.9-3z"/><path class="st6" d="M20.7 25.8l4.4-8.2 1.6 12.9z"/><path class="st7" d="M25.1 17.6l-4.4 8.2 6 4.7z"/><path class="st8" d="M16.8 17.6h8.3l-4.4 8.2z"/><path class="st8" d="M16.8 17.6l3.9 8.2 4.4-8.2z"/><path class="st9" d="M16.8 17.6l4-7.3 4.3 7.3z"/><path class="st9" d="M20.8 10.3l-4 7.3h8.3z"/><path class="st10" d="M22.5 2.4l-1.7 7.9-8-.6z"/><path class="st10" d="M22.5 2.4l-9.7 7.3 8 .6z"/><path class="st11" d="M3.4 8.6l9.4 1.1L2.4 20.2z"/><path class="st11" d="M3.4 8.6l-1 11.6L12.8 9.7z"/><path class="st12" d="M8.9 3.5l3.9 6.2-9.4-1.1z"/><path class="st13" d="M8.9 3.5L3.4 8.6l9.4 1.1z"/><path class="st13" d="M8.9 3.5l13.6-1.1-9.7 7.3z"/><path class="st14" d="M8.9 3.5l3.9 6.2 9.7-7.3z"/><path class="st15" d="M2.4 20.2l9 1.1-8.3 4.8z"/><path class="st15" d="M2.4 20.2l.7 5.9 8.3-4.8z"/><path class="st16" d="M2.4 20.2L12.8 9.7l-1.4 11.6z"/><path class="st16" d="M12.8 9.7L2.4 20.2l9 1.1z"/><path class="st17" d="M3.1 26.1l8.3-4.8-3.7 9.9z"/><path class="st17" d="M3.1 26.1l4.6 5.1 3.7-9.9z"/><path class="st18" d="M12.8 9.7l4 7.9-5.4 3.7z"/><path class="st19" d="M12.8 9.7l-1.4 11.6 5.4-3.7z"/><path class="st20" d="M22.5 2.4l9.2 9.2-10.9-1.3z"/><path class="st20" d="M22.5 2.4l-1.7 7.9 10.9 1.3z"/><path class="st21" d="M20.7 25.8l.1 7.7-9.9-1.4z"/><path class="st4" d="M20.7 25.8l-9.8 6.3 9.9 1.4z"/><path class="st22" d="M7.7 31.2l3.7-9.9-.5 10.8z"/><path class="st22" d="M11.4 21.3l-3.7 9.9 3.2.9z"/><path class="st23" d="M12.8 9.7l8 .6-4 7.3z"/><path class="st24" d="M12.8 9.7l4 7.9 4-7.3z"/><path class="st25" d="M20.8 10.3l10.9 1.3-6.6 6z"/><path class="st25" d="M20.8 10.3l4.3 7.3 6.6-6z"/><path class="st26" d="M11.4 21.3l9.3 4.5-9.8 6.3z"/><path class="st26" d="M11.4 21.3l-.5 10.8 9.8-6.3z"/><path class="st27" d="M11.4 21.3l5.4-3.7 3.9 8.2z"/><path class="st27" d="M16.8 17.6l-5.4 3.7 9.3 4.5z"/><path class="st28" d="M16.7 34.2C7.5 34.2 0 26.7 0 17.5S7.5.8 16.7.8s16.7 7.5 16.7 16.7-7.5 16.7-16.7 16.7zm0-30.5C9.1 3.7 2.9 9.9 2.9 17.5c0 7.6 6.2 13.8 13.8 13.8 7.6 0 13.8-6.2 13.8-13.8 0-7.6-6.2-13.8-13.8-13.8z"/><path class="st28" d="M16.8 9.3v8.3h8.3c0-4.6-3.7-8.3-8.3-8.3zm0 8.3H8.5c0 4.6 3.7 8.3 8.3 8.3v-8.3z"/></g></g></svg>